<svg id="icons" xmlns="http://www.w3.org/2000/svg" viewBox="0 0 48 48"><title>3d-cube</title><g id="_3d-cube" data-name="3d-cube"><polygon points="5 13 24 2 43 13 43 35 24 46 5 35 5 13" fill="#b1bfc9"/><polygon points="7.5 33 24 23.45 40.5 33 24 42.55 7.5 33" fill="#6d7c8c"/><path d="M24,47a1,1,0,0,1-.5-.13l-19-11A1,1,0,0,1,4,35V13a1,1,0,0,1,.5-.86l19-11a1,1,0,0,1,1,0l19,11A1,1,0,0,1,44,13V35a1,1,0,0,1-.5.86l-19,11A1,1,0,0,1,24,47ZM6,34.42,24,44.84,42,34.42V13.58L24,3.16,6,13.58Z" fill="#252b33"/><path d="M24,25a1,1,0,0,1-.5-.13l-19-11A1,1,0,0,1,4,13a1,1,0,0,1,.5-.86l19-11a1,1,0,0,1,1,0l19,11A1,1,0,0,1,44,13a1,1,0,0,1-.5.87l-19,11A1,1,0,0,1,24,25ZM7,13l17,9.85L41,13,24,3.16Z" fill="#252b33"/><path d="M24,46.68a1,1,0,0,1-1-1V24a1,1,0,0,1,2,0V45.68A1,1,0,0,1,24,46.68Z" fill="#252b33"/></g></svg>